<svg xmlns="http://www.w3.org/2000/svg" width="45" height="45" viewBox="0 0 45 45">
  <circle id="Ellipse_4" data-name="Ellipse 4" cx="22.5" cy="22.5" r="22.5" fill="rgba(242,69,121,0.07)"/>
  <g id="loud-speaker" transform="translate(8 8)">
    <g id="Group_8" data-name="Group 8" transform="translate(6.174 3)">
      <g id="Group_7" data-name="Group 7">
        <path id="Path_7" data-name="Path 7" d="M21.671,23.993a.632.632,0,0,1-.222-.041L5.4,17.778A.617.617,0,0,1,5,17.2V9.792a.617.617,0,0,1,.4-.577L21.449,3.041a.618.618,0,0,1,.84.577V23.376a.618.618,0,0,1-.617.617ZM6.235,16.776l14.819,5.7V4.517l-14.819,5.7Z" transform="translate(-5 -3)" fill="#f24579"/>
      </g>
    </g>
    <g id="Group_10" data-name="Group 10" transform="translate(0 9.175)">
      <g id="Group_9" data-name="Group 9">
        <path id="Path_8" data-name="Path 8" d="M6.792,16.644H2.47A2.472,2.472,0,0,1,0,14.174v-3.7A2.472,2.472,0,0,1,2.47,8H6.792a.618.618,0,0,1,.617.617v7.409A.618.618,0,0,1,6.792,16.644ZM2.47,9.235A1.235,1.235,0,0,0,1.235,10.47v3.7A1.235,1.235,0,0,0,2.47,15.409h3.7V9.235Z" transform="translate(0 -8)" fill="#f24579"/>
      </g>
    </g>
    <g id="Group_12" data-name="Group 12" transform="translate(3.705 16.585)">
      <g id="Group_11" data-name="Group 11">
        <path id="Path_9" data-name="Path 9" d="M8.557,23.879h-3.7a.617.617,0,0,1-.611-.531L3.006,14.7a.617.617,0,0,1,.525-.7.625.625,0,0,1,.7.525l1.16,8.113H7.865l-.825-7.352a.62.62,0,0,1,.545-.683.627.627,0,0,1,.683.545l.9,8.039a.618.618,0,0,1-.613.687Z" transform="translate(-3 -14.001)" fill="#f24579"/>
      </g>
    </g>
    <g id="Group_14" data-name="Group 14" transform="translate(24.698 6.705)">
      <g id="Group_13" data-name="Group 13">
        <path id="Path_10" data-name="Path 10" d="M20.617,9.7a.617.617,0,0,1-.342-1.131l3.7-2.47a.617.617,0,1,1,.684,1.027l-3.7,2.47A.611.611,0,0,1,20.617,9.7Z" transform="translate(-20 -6)" fill="#f24579"/>
      </g>
    </g>
    <g id="Group_16" data-name="Group 16" transform="translate(24.698 17.819)">
      <g id="Group_15" data-name="Group 15">
        <path id="Path_11" data-name="Path 11" d="M24.322,18.7a.611.611,0,0,1-.342-.1l-3.7-2.47a.617.617,0,0,1,.684-1.027l3.7,2.47a.617.617,0,0,1-.342,1.131Z" transform="translate(-20 -15.001)" fill="#f24579"/>
      </g>
    </g>
    <g id="Group_18" data-name="Group 18" transform="translate(24.698 13.497)">
      <g id="Group_17" data-name="Group 17">
        <path id="Path_12" data-name="Path 12" d="M24.322,12.735h-3.7a.617.617,0,1,1,0-1.235h3.7a.617.617,0,1,1,0,1.235Z" transform="translate(-20 -11.5)" fill="#f24579"/>
      </g>
    </g>
  </g>
</svg>
