<svg xmlns="http://www.w3.org/2000/svg" width="45" height="45" viewBox="0 0 45 45">
  <circle id="Ellipse_3" data-name="Ellipse 3" cx="22.5" cy="22.5" r="22.5" fill="rgba(86,255,177,0.05)"/>
  <g id="ic_brush_48px" transform="translate(5 3.995)">
    <path id="Path_4" data-name="Path 4" d="M10.926,21.239A4.159,4.159,0,0,0,6.77,25.394,2.807,2.807,0,0,1,4,28.164a7.177,7.177,0,0,0,5.541,2.77,5.539,5.539,0,0,0,5.541-5.541A4.159,4.159,0,0,0,10.926,21.239ZM29.91,8.259,28.061,6.41a1.388,1.388,0,0,0-1.96,0l-12.4,12.4,3.809,3.809,12.4-12.4A1.375,1.375,0,0,0,29.91,8.259Z" fill="#45f2a2"/>
  </g>
</svg>
