<?xml version="1.0" standalone="no"?>
<!DOCTYPE svg PUBLIC "-//W3C//DTD SVG 20010904//EN"
 "http://www.w3.org/TR/2001/REC-SVG-20010904/DTD/svg10.dtd">
<svg version="1.0" xmlns="http://www.w3.org/2000/svg"
 width="700.000000pt" height="700.000000pt" viewBox="0 0 700.000000 700.000000"
 preserveAspectRatio="xMidYMid meet">
<metadata>
Created by potrace 1.11, written by Peter Selinger 2001-2013
</metadata>
<g transform="translate(0.000000,700.000000) scale(0.100000,-0.100000)"
fill="#000000" stroke="none">
<path d="M363 6985 c-85 -23 -153 -63 -219 -129 -68 -68 -104 -131 -128 -222
-14 -53 -16 -375 -16 -3139 0 -2957 1 -3082 19 -3140 26 -86 53 -135 109 -196
60 -65 138 -113 223 -139 63 -19 131 -20 3144 -19 2880 0 3084 1 3146 17 124
33 248 132 305 243 57 114 54 -95 53 3239 0 1935 -3 3083 -10 3115 -35 183
-201 345 -384 375 -38 6 -1175 10 -3125 9 -2601 0 -3073 -3 -3117 -14z"/>
</g>
</svg>
